<svg width="55" height="80" viewBox="0 0 55 80" fill="none" xmlns="http://www.w3.org/2000/svg">
<g clip-path="url(#clip0)">
<path d="M54.8295 0.677917H4.2959V67.7542H8.42196L8.33689 79.9999L15.1853 73.5169L21.8636 79.9576L21.9061 67.7118H54.8295V0.677917ZM53.1281 66.0593H21.9061V61.4406H20.2046L20.1621 75.9745L15.2278 71.1864L10.0809 76.0593L10.166 59.5338H8.4645L8.42196 66.1016H5.99737V2.37283H53.1281V66.0593Z" fill="black"/>
<path d="M4.16797 8.8983V8.68644V8.30508V0.720339V0.338983V0H54.9994V0.338983V0.720339V8.30508V8.68644V8.8983H4.16797Z" fill="#008FD3"/>
<path d="M16.8865 0H4.16797V8.8983H16.8865V0Z" fill="#F0AB00"/>
<path opacity="0.7" d="M29.6062 0H16.8877V8.8983H29.6062V0Z" fill="#F0AB00"/>
<path opacity="0.4" d="M42.3239 0H29.6055V8.8983H42.3239V0Z" fill="#F0AB00"/>
<path d="M47.2585 22.0762H12.8037V23.7711H47.2585V22.0762Z" fill="black"/>
<path d="M32.7534 28.3475H12.8037V30.0424H32.7534V28.3475Z" fill="black"/>
<path d="M32.7534 15.8051H12.8037V17.5H32.7534V15.8051Z" fill="black"/>
<path d="M35.1349 59.8728C34.667 59.8728 34.2842 59.4915 34.2842 59.0254V58.2203C34.2842 56.5254 35.6879 55.1271 37.3894 55.1271C38.9207 55.1271 40.1968 56.3559 40.2393 57.9237L41.643 56.9491C42.4512 56.3983 43.5147 56.483 44.2378 57.1186L44.493 57.3305C44.5781 57.3728 44.6631 57.4152 44.7482 57.4152H48.3213C48.7892 57.4152 49.172 57.7966 49.172 58.2627C49.172 58.7288 48.7892 59.1101 48.3213 59.1101H44.7482C44.2378 59.1101 43.7273 58.8983 43.3445 58.5593L43.0893 58.3474C42.9617 58.2203 42.749 58.2203 42.6214 58.305L40.7923 59.5762C40.3669 59.8728 39.7714 59.9152 39.3035 59.661C38.8356 59.4067 38.5379 58.9406 38.5379 58.3898V57.9237C38.5379 57.2881 38.0274 56.7796 37.3894 56.7796C36.6237 56.7796 35.9856 57.4152 35.9856 58.1779V58.983C35.9856 59.4915 35.6028 59.8728 35.1349 59.8728Z" fill="black"/>
<path d="M29.6485 50.5508L29.606 50.4661C29.5209 50.2966 29.4784 50.0423 29.4784 49.7881C29.4784 49.7881 29.4784 49.7881 29.4784 49.7457C29.4784 49.5339 29.5209 49.2796 29.606 49.1101L29.6485 49.0254L30.1165 48.0932C30.4142 47.5 30.2441 46.6949 29.7762 46.2288L29.6485 46.1017L28.968 45.4661C28.6702 45.2118 28.4575 44.6186 28.5001 44.2373L28.6277 43.1356C28.6702 42.8813 28.6277 42.6695 28.5426 42.4152C28.5001 42.3305 28.4575 42.2457 28.415 42.161C28.2448 41.8644 27.9896 41.6101 27.6919 41.483L26.671 41.0169C26.3307 40.8474 25.9053 40.3813 25.8202 40L25.5225 38.983C25.3523 38.3474 24.7143 37.7966 24.0762 37.7542L22.9703 37.6695C22.5875 37.6271 22.0345 37.3305 21.8218 36.9915L21.1837 36.0593C20.8009 35.5084 20.0352 35.2118 19.3972 35.4237L18.2912 35.7203C17.9084 35.8474 17.3129 35.7203 16.9726 35.5084L16.4196 35.1271L16.0793 34.8728C15.8241 34.661 15.4838 34.5762 15.1435 34.5762C14.8032 34.5762 14.4629 34.661 14.2077 34.8728L13.8674 35.1271L13.3144 35.5084C13.0167 35.7203 12.3786 35.8474 11.9958 35.7203L10.9324 35.4237C10.2943 35.2542 9.48614 35.5084 9.14584 36.0593L8.50779 36.9915C8.29511 37.3305 7.74213 37.6271 7.3593 37.6695L6.25335 37.7542C5.57276 37.7966 4.93471 38.3474 4.8071 38.983L4.55188 40.0847C4.4668 40.4661 4.04144 40.9322 3.70114 41.1017L2.59519 41.5254C2.29743 41.6525 2.04221 41.9067 1.87206 42.2034C1.82953 42.2881 1.78699 42.3728 1.74445 42.4576C1.65938 42.6695 1.61684 42.9237 1.65938 43.1779L1.78699 44.2796C1.82953 44.661 1.61684 45.2542 1.31908 45.5084L0.681033 46.144L0.510886 46.3135C0.0429824 46.7796 -0.127165 47.5847 0.170593 48.1779L0.681033 49.1949C0.766107 49.3644 0.808644 49.5762 0.808644 49.8305C0.808644 49.8305 0.808644 49.8305 0.808644 49.8728C0.808644 50.1271 0.766107 50.3389 0.681033 50.5508L0.170593 51.5678C-0.127165 52.161 0.0429824 52.9661 0.510886 53.4322L0.681033 53.6017L1.31908 54.2373C1.61684 54.4915 1.82953 55.0847 1.78699 55.4661L1.65938 56.5678C1.61684 56.7796 1.65938 56.9915 1.74445 57.2034C1.78699 57.3305 1.82953 57.4152 1.87206 57.5423C2.04221 57.839 2.29743 58.0932 2.59519 58.2203L3.61607 58.6864C3.95636 58.8559 4.38173 59.322 4.4668 59.7034L4.72202 60.8051C4.89217 61.4406 5.53022 61.9915 6.16827 62.0339L7.27423 62.1186C7.3593 62.1186 7.40184 62.1186 7.48691 62.161C7.74213 62.2457 7.99735 62.3729 8.21003 62.5423C8.29511 62.6271 8.38018 62.7118 8.42272 62.7542L9.06077 63.6864C9.4436 64.2373 10.2093 64.5339 10.8473 64.322L11.9107 64.0254C12.2936 63.8983 12.8891 64.0254 13.2294 64.2373L13.6973 64.5762L14.1226 64.9152C14.3779 65.1271 14.7182 65.2118 15.0584 65.2118C15.3987 65.2118 15.739 65.1271 15.9943 64.9152L16.4196 64.5762L16.8875 64.2373C17.1853 64.0254 17.8233 63.8983 18.2062 64.0254L19.2696 64.322C19.9076 64.4915 20.7158 64.2373 21.0561 63.6864L21.6942 62.7542C21.7793 62.6271 21.9069 62.5 22.077 62.4152C22.2897 62.2457 22.5875 62.161 22.8001 62.1186H22.8427L23.9486 62.0339C24.6292 61.9915 25.2673 61.4406 25.3949 60.8051L25.6501 59.7034C25.7352 59.322 26.1605 58.8559 26.5008 58.6864L27.5217 58.2203C27.8195 58.0932 28.0747 57.839 28.2448 57.5423C28.2874 57.4576 28.3724 57.3305 28.3724 57.2034C28.4575 56.9915 28.4575 56.7796 28.4575 56.5678L28.3299 55.4661C28.2874 55.0847 28.5001 54.4915 28.7978 54.2373L29.4784 53.6017L29.7762 53.3898C30.2441 52.9237 30.4142 52.1186 30.1165 51.5254L29.6485 50.5508ZM7.52945 44.1525C7.57198 44.0678 7.65706 44.0254 7.69959 43.9406C9.4436 41.822 12.0809 40.4661 15.0159 40.4661C17.9509 40.4661 20.5882 41.822 22.3322 43.9406C22.3748 44.0254 22.4598 44.0678 22.5024 44.1525C23.7359 45.7203 24.4591 47.7118 24.4591 49.8728C24.4591 49.9152 24.4591 49.9152 24.4591 49.9576C24.4591 49.9576 24.4591 49.9576 24.4591 50C24.4165 52.2034 23.6509 54.1949 22.3748 55.7627C22.2897 55.8474 22.2472 55.9322 22.1621 56.0169C20.4181 58.0084 17.8659 59.2796 15.0584 59.2796C12.251 59.2796 9.65628 58.0084 7.95481 56.0169C7.86974 55.9322 7.8272 55.8474 7.74213 55.7627C6.46603 54.1949 5.70037 52.161 5.65783 50C5.65783 50 5.65783 50 5.65783 49.9576C5.65783 49.9152 5.65783 49.9152 5.65783 49.8728C5.57276 47.7118 6.33842 45.7203 7.52945 44.1525Z" fill="#008FD3"/>
<g opacity="0.4">
<path opacity="0.4" d="M24.4588 49.8304C24.4588 49.8728 24.4588 49.8728 24.4588 49.9152C24.4588 49.9152 24.4588 49.9152 24.4588 49.9576C24.4163 52.161 23.6506 54.1525 22.3745 55.7203C22.2895 55.805 22.2469 55.8898 22.1619 55.9745C21.694 56.5254 21.141 57.0338 20.5029 57.4576H28.4148C28.4573 57.3728 28.5424 57.2457 28.5424 57.1186C28.6274 56.9067 28.6274 56.6949 28.6274 56.483L28.4998 55.3813C28.4573 54.9999 28.67 54.4067 28.9677 54.1525L29.6483 53.5169L29.7759 53.3898C30.2438 52.9237 30.414 52.1186 30.1162 51.5254L29.6483 50.5932L29.6058 50.5084C29.5207 50.3389 29.4782 50.0847 29.4782 49.8304H24.4588Z" fill="#F0AB00"/>
<path opacity="0.4" d="M7.91185 55.9745C7.82677 55.8898 7.78424 55.805 7.69916 55.7203C6.42306 54.1525 5.6574 52.1186 5.61486 49.9576C5.61486 49.9576 5.61486 49.9576 5.61486 49.9152C5.61486 49.8728 5.61486 49.8728 5.61486 49.8304H0.765675C0.765675 50.0847 0.723138 50.2965 0.638065 50.5084L0.127624 51.5254C-0.170133 52.1186 1.36122e-05 52.9237 0.467918 53.3898L0.638065 53.5593L1.27612 54.1949C1.57387 54.4491 1.78656 55.0423 1.74402 55.4237L1.61641 56.5254C1.57387 56.7372 1.61641 56.9491 1.70148 57.161C1.74402 57.2881 1.78656 57.3728 1.82909 57.4999H9.52824C8.93273 57.0338 8.37975 56.5254 7.91185 55.9745Z" fill="#F0AB00"/>
</g>
<g opacity="0.7">
<path opacity="0.7" d="M22.3326 43.9406C22.3751 44.0253 22.4602 44.0677 22.5027 44.1525C23.7363 45.7203 24.4594 47.7118 24.4594 49.8304H29.5213C29.5213 49.8304 29.5213 49.8304 29.5213 49.788C29.5213 49.5762 29.5638 49.3219 29.6489 49.1525L29.6914 49.0677L30.1593 48.1355C30.4571 47.5423 30.2869 46.7372 29.819 46.2711L29.6914 46.144L29.0108 45.5084C28.7131 45.2542 28.5004 44.6609 28.5429 44.2796L28.6705 43.1779C28.7131 42.9236 28.6705 42.7118 28.5855 42.4575C28.5429 42.3728 28.5004 42.2881 28.4578 42.2033H20.4609C21.1841 42.6694 21.7796 43.2626 22.3326 43.9406Z" fill="#F0AB00"/>
<path opacity="0.7" d="M5.57276 49.8304C5.57276 47.7118 6.29588 45.7203 7.52945 44.1525C7.57198 44.0677 7.65706 44.0253 7.69959 43.9406C8.25257 43.2626 8.84809 42.6694 9.57121 42.2033H1.87206C1.82953 42.2881 1.78699 42.3728 1.74445 42.4575C1.65938 42.6694 1.61684 42.9236 1.65938 43.1779L1.78699 44.2796C1.82953 44.6609 1.61684 45.2542 1.31908 45.5084L0.681033 46.144L0.510886 46.3135C0.0429824 46.7796 -0.127165 47.5847 0.170593 48.1779L0.681033 49.1948C0.766107 49.3643 0.808644 49.5762 0.808644 49.8304C0.808644 49.8304 0.808644 49.8304 0.808644 49.8728H5.57276V49.8304Z" fill="#F0AB00"/>
</g>
<path d="M14.1652 34.8306L13.8249 35.0848L13.2719 35.4662C12.9742 35.678 12.3361 35.8051 11.9533 35.678L10.8899 35.3814C10.2518 35.2119 9.44361 35.4662 9.10332 36.017L8.46526 36.9492C8.25258 37.2882 7.6996 37.5848 7.31677 37.6272L6.21082 37.7119C5.53023 37.7543 4.89218 38.3051 4.76457 38.9407L4.50935 40.0424C4.42427 40.4238 3.99891 40.8899 3.65861 41.0594L2.59519 41.5255C2.29744 41.6526 2.04222 41.9068 1.87207 42.2034H9.57122C11.1025 41.1018 12.9742 40.4662 15.0159 40.4662C17.0577 40.4662 18.9293 41.1018 20.4606 42.2034H28.415C28.2448 41.9068 27.9896 41.6526 27.6919 41.5255L26.671 41.0594C26.3307 40.8899 25.9053 40.4238 25.8203 40.0424L25.5225 38.9831C25.3523 38.3475 24.7143 37.7967 24.0762 37.7543L22.9703 37.6695C22.5875 37.6272 22.0345 37.3306 21.8218 36.9916L21.1837 36.0594C20.8009 35.5085 20.0353 35.2119 19.3972 35.4238L18.2913 35.7204C17.9084 35.8475 17.3129 35.7204 16.9726 35.5085L16.4196 35.1272L16.0793 34.8729C15.8241 34.6611 15.4838 34.5763 15.1435 34.5763C14.8032 34.534 14.4629 34.6611 14.1652 34.8306Z" fill="#F0AB00"/>
<path d="M14.8883 60.3391C9.14584 60.3391 4.4668 55.6781 4.4668 49.9577C4.4668 44.2374 9.14584 39.5764 14.8883 39.5764C20.6308 39.5764 25.3098 44.2374 25.3098 49.9577C25.3098 55.6781 20.6308 60.3391 14.8883 60.3391ZM14.8883 41.3136C10.0816 41.3136 6.16827 45.2119 6.16827 50.0001C6.16827 54.7882 10.0816 58.6865 14.8883 58.6865C19.6949 58.6865 23.6083 54.7882 23.6083 50.0001C23.6083 45.2119 19.6949 41.3136 14.8883 41.3136Z" fill="black"/>
</g>
<defs>
<clipPath id="clip0">
<rect width="55" height="80" fill="white"/>
</clipPath>
</defs>
</svg>
